<svg viewBox="0 0 200 200" xmlns="http://www.w3.org/2000/svg">
  <!-- No background circle for a cleaner 'zemin' integration -->
  
  <!-- Outer Decorative Rings (Caramel color for premium feel) -->
  <circle cx="100" cy="100" r="94" fill="none" stroke="#C47A3A" stroke-width="0.8" opacity="0.4"/>
  <circle cx="100" cy="100" r="90" fill="none" stroke="#C47A3A" stroke-width="1.2" opacity="0.6"/>
  
  <!-- Motorcycle (Line art using site's cream color) -->
  <g transform="translate(60, 45) scale(0.65)" fill="none" stroke="#F5EFE4" stroke-width="4.5" stroke-linecap="round" stroke-linejoin="round">
    <circle cx="25" cy="65" r="22" stroke-width="5"/>
    <circle cx="115" cy="65" r="22" stroke-width="5"/>
    <path d="M25 65 L50 35 L105 35 L115 65" stroke-width="4.5"/>
    <path d="M50 35 L50 65 L105 65 L105 35" stroke-width="3"/>
    <path d="M55 35 Q80 10 105 35 Z" fill="#F5EFE4" stroke="none" opacity="0.9"/>
    <path d="M30 35 L55 35" stroke-width="6"/>
    <path d="M105 35 L115 15" stroke-width="3.5"/>
    <circle cx="120" cy="15" r="4" fill="#F5EFE4"/>
  </g>
  
  <!-- "way" script in Caramel -->
  <text x="100" y="132" text-anchor="middle" font-family="'Playball', cursive" font-size="68" font-weight="400" fill="#C47A3A">way</text>
  
  <!-- "COFFEE" and beans in Cream -->
  <g transform="translate(100, 162)">
    <text text-anchor="middle" font-family="'DM Mono', monospace" font-size="14" font-weight="400" fill="#F5EFE4" style="letter-spacing: 2.5px;">COFFEE</text>
    <path d="M-55 -4 Q-58 -10 -50 -8 Q-42 -6 -45 0 Q-48 6 -55 -4 Z" fill="#C47A3A" transform="rotate(-20 -50 -4)" opacity="0.8"/>
    <path d="M50 -4 Q47 -10 55 -8 Q63 -6 60 0 Q57 6 50 -4 Z" fill="#C47A3A" transform="rotate(20 55 -4)" opacity="0.8"/>
  </g>
</svg>
